<?xml version="1.0" encoding="UTF-8" standalone="no"?>
<svg
   xmlns:osb="http://www.openswatchbook.org/uri/2009/osb"
   xmlns:dc="http://purl.org/dc/elements/1.1/"
   xmlns:cc="http://creativecommons.org/ns#"
   xmlns:rdf="http://www.w3.org/1999/02/22-rdf-syntax-ns#"
   xmlns:svg="http://www.w3.org/2000/svg"
   xmlns="http://www.w3.org/2000/svg"
   xmlns:xlink="http://www.w3.org/1999/xlink"
   id="svg86"
   xml:space="preserve"
   enable-background="new 0 0 841.89 595.275"
   viewBox="0 0 672.99999 225.99999"
   height="226"
   width="673"
   y="0px"
   x="0px"
   version="1.1"><metadata
   id="metadata92"><rdf:RDF><cc:Work
       rdf:about=""><dc:format>image/svg+xml</dc:format><dc:type
         rdf:resource="http://purl.org/dc/dcmitype/StillImage" /><dc:title></dc:title></cc:Work></rdf:RDF></metadata><defs
   id="defs90"><linearGradient
     osb:paint="solid"
     id="linearGradient5106"><stop
       id="stop5104"
       offset="0"
       style="stop-color:#ff0000;stop-opacity:1;" /></linearGradient><linearGradient
     osb:paint="solid"
     id="linearGradient4999"><stop
       id="stop4997"
       offset="0"
       style="stop-color:#1b7dda;stop-opacity:1;" /></linearGradient><linearGradient
     gradientTransform="matrix(1.1365846,0,0,1,-134.60324,218.86171)"
     gradientUnits="userSpaceOnUse"
     y2="150.27379"
     x2="731.26453"
     y1="150.27379"
     x1="100.77182"
     id="linearGradient5001"
     xlink:href="#linearGradient4999" /><linearGradient
     gradientTransform="matrix(1.1365846,0,0,1,-134.60325,294.06898)"
     gradientUnits="userSpaceOnUse"
     y2="150.27379"
     x2="731.26453"
     y1="150.27379"
     x1="100.77182"
     id="linearGradient5001-9"
     xlink:href="#linearGradient4999" /><linearGradient
     gradientTransform="matrix(1.1365846,0,0,1,-134.60324,369.27629)"
     gradientUnits="userSpaceOnUse"
     y2="150.27379"
     x2="731.26453"
     y1="150.27379"
     x1="100.77182"
     id="linearGradient5001-8"
     xlink:href="#linearGradient4999" /><linearGradient
     gradientTransform="matrix(1.1365846,0,0,1,-134.60324,444.48358)"
     gradientUnits="userSpaceOnUse"
     y2="150.27379"
     x2="731.26453"
     y1="150.27379"
     x1="100.77182"
     id="linearGradient5001-96"
     xlink:href="#linearGradient4999" /><linearGradient
     gradientTransform="matrix(0,0.42432815,-1,0,218.55132,299.62161)"
     gradientUnits="userSpaceOnUse"
     y2="150.27379"
     x2="731.26453"
     y1="150.27379"
     x1="100.77182"
     id="linearGradient5001-96-6"
     xlink:href="#linearGradient4999" /><linearGradient
     gradientTransform="matrix(0,0.42432815,-1,0,750.94758,299.62161)"
     gradientUnits="userSpaceOnUse"
     y2="150.27379"
     x2="731.26453"
     y1="150.27379"
     x1="100.77182"
     id="linearGradient5001-96-6-5"
     xlink:href="#linearGradient4999" /><linearGradient
     gradientTransform="matrix(0,0.42432815,-1,0,823.18224,299.62161)"
     gradientUnits="userSpaceOnUse"
     y2="150.27379"
     x2="731.26453"
     y1="150.27379"
     x1="100.77182"
     id="linearGradient5001-96-6-5-1"
     xlink:href="#linearGradient4999" /><linearGradient
     gradientTransform="matrix(0,0.42432815,-1,0,150.77558,299.62161)"
     gradientUnits="userSpaceOnUse"
     y2="150.27379"
     x2="731.26453"
     y1="150.27379"
     x1="100.77182"
     id="linearGradient5001-96-6-5-4"
     xlink:href="#linearGradient4999" /><linearGradient
     y2="521.91248"
     x2="420.09985"
     y1="521.91248"
     x1="398.88892"
     gradientTransform="translate(-375.58942,-41.710287)"
     gradientUnits="userSpaceOnUse"
     id="linearGradient5531"
     xlink:href="#linearGradient5106" /><linearGradient
     y2="521.91248"
     x2="420.09985"
     y1="521.91248"
     x1="398.88892"
     gradientTransform="translate(-371.67012,29.147373)"
     gradientUnits="userSpaceOnUse"
     id="linearGradient5533"
     xlink:href="#linearGradient5106" /><linearGradient
     y2="521.91248"
     x2="420.09985"
     y1="521.91248"
     x1="398.88892"
     gradientTransform="translate(-371.67012,-119.85956)"
     gradientUnits="userSpaceOnUse"
     id="linearGradient5535"
     xlink:href="#linearGradient5106" /><linearGradient
     y2="521.91248"
     x2="420.09985"
     y1="521.91248"
     x1="398.88892"
     gradientTransform="translate(230.98657,29.553943)"
     gradientUnits="userSpaceOnUse"
     id="linearGradient5537"
     xlink:href="#linearGradient5106" /><linearGradient
     y2="521.91248"
     x2="420.09985"
     y1="521.91248"
     x1="398.88892"
     gradientTransform="translate(230.98657,-119.45299)"
     gradientUnits="userSpaceOnUse"
     id="linearGradient5539"
     xlink:href="#linearGradient5106" /></defs>
<g
   transform="translate(0,-369.27502)"
   id="Networked_Health">
</g>
<g
   style="fill:#ffffff;fill-opacity:1"
   transform="translate(-78.867166,-170.03261)"
   id="g81">
			<g
   style="fill:#ffffff;fill-opacity:1"
   id="g39">
				<g
   style="fill:#ffffff;fill-opacity:1"
   id="g37">
					<polygon
   style="fill:#ffffff;fill-opacity:1"
   id="polygon35"
   points="513.862,265.271 520.669,267.522 506.171,304.048 499.581,304.048 486.015,267.522 493.099,265.271 502.821,295.149 502.931,295.149 " />
				</g>
			</g>
			<g
   style="fill:#ffffff;fill-opacity:1"
   id="g45">
				<g
   style="fill:#ffffff;fill-opacity:1"
   id="g43">
					<polygon
   style="fill:#ffffff;fill-opacity:1"
   id="polygon41"
   points="541.214,266.039 548.243,266.039 547.915,304.048 540.884,304.048 " />
				</g>
			</g>
			<g
   style="fill:#ffffff;fill-opacity:1"
   id="g51">
				<g
   style="fill:#ffffff;fill-opacity:1"
   id="g49">
					<polygon
   style="fill:#ffffff;fill-opacity:1"
   id="polygon47"
   points="596.796,272.081 586.308,272.081 586.032,304.048 579.001,304.048 579.276,272.081 568.62,272.081 568.675,266.039 596.853,266.039 " />
				</g>
			</g>
			<g
   style="fill:#ffffff;fill-opacity:1"
   id="g57">
				<g
   style="fill:#ffffff;fill-opacity:1"
   id="g55">
					<path
   style="fill:#ffffff;fill-opacity:1"
   id="path53"
   d="m 616.751,304.815 -6.535,-1.977 14.609,-36.8 h 6.479 l 13.566,36.8 -6.865,1.977 -3.734,-10.873 h -13.236 z m 11.203,-31.416 h -0.109 l -4.777,14.83 h 9.279 z" />
				</g>
			</g>
			<g
   style="fill:#ffffff;fill-opacity:1"
   id="g61">
				<path
   style="fill:#ffffff;fill-opacity:1"
   id="path59"
   d="m 184.73,266.039 h 10.71 c 9.94,0 13.896,4.503 13.896,11.589 0,7.799 -6.481,11.535 -13.842,11.535 h -3.899 l -0.055,14.885 h -7.195 z m 10.545,17.411 c 3.789,0 6.7,-2.307 6.7,-5.877 0,-2.307 -1.317,-5.82 -6.426,-5.82 h -3.735 l -0.109,11.697 z" />
			</g>
			<g
   style="fill:#ffffff;fill-opacity:1"
   id="g65">
				<path
   style="fill:#ffffff;fill-opacity:1"
   id="path63"
   d="m 247.222,265.271 c 12.305,0 20.378,8.677 20.378,19.772 0,11.094 -8.843,19.771 -20.378,19.771 -11.533,0 -20.377,-8.236 -20.377,-19.771 0,-11.095 9.063,-19.772 20.377,-19.772 z m 0,33.832 c 7.855,0 13.019,-6.535 13.019,-14.059 0,-8.074 -5.163,-14.061 -13.019,-14.061 -6.371,0 -13.016,5.217 -13.016,14.061 0.001,8.293 5.163,14.059 13.016,14.059 z" />
			</g>
			<g
   style="fill:#ffffff;fill-opacity:1"
   id="g69">
				<path
   style="fill:#ffffff;fill-opacity:1"
   id="path67"
   d="m 289.745,266.039 h 12.03 c 9.171,0 12.906,4.944 12.906,10.985 0,4.832 -2.911,8.293 -7.359,9.887 l 10.819,14.17 -6.261,3.734 -10.547,-14.664 c -0.659,-0.936 -1.483,-1.318 -2.526,-1.318 h -2.196 l -0.055,15.215 h -7.195 z m 11.315,17.083 c 2.086,0 6.262,-0.934 6.262,-5.877 0,-3.627 -2.856,-5.492 -6.427,-5.492 h -4.065 l -0.109,11.369 z" />
			</g>
			<g
   style="fill:#ffffff;fill-opacity:1"
   id="g73">
				<polygon
   style="fill:#ffffff;fill-opacity:1"
   id="polygon71"
   points="365.431,272.081 354.941,272.081 354.667,304.048 347.636,304.048 347.91,272.081 337.254,272.081 337.309,266.039 365.486,266.039 " />
			</g>
			<g
   style="fill:#ffffff;fill-opacity:1"
   id="g77">
				<path
   style="fill:#ffffff;fill-opacity:1"
   id="path75"
   d="m 388.577,304.815 -6.535,-1.977 14.609,-36.8 h 6.482 l 13.565,36.8 -6.864,1.977 -3.736,-10.873 h -13.236 z m 11.207,-31.416 h -0.109 l -4.779,14.83 h 9.281 z" />
			</g>
			<path
   style="fill:#ffffff;fill-opacity:1"
   id="path79"
   d="M 639.159,245.609 H 472 v -32.938 l -35.196,32.938 h -248.38 c -22.737,0 -40.318,16.729 -40.318,38.05 0,21.321 17.581,38.051 40.318,38.051 H 639.16 c 22.737,0 40.318,-16.729 40.318,-38.05 0,-21.321 -17.582,-38.051 -40.319,-38.051 z m -486.097,37.774 c 0,-18.772 13.928,-33.744 38.937,-33.744 l 240.993,-0.01 v 68.06 l -240.993,0.01 c -23.534,-0.001 -38.937,-15.544 -38.937,-34.316 z m 482.522,34.298 -201.539,0.008 37.955,-34.98 v -33.082 l 163.584,-0.006 c 23.533,0 38.937,15.543 38.937,34.315 0,18.772 -13.928,33.745 -38.937,33.745 z" />
		</g>
<g
   transform="translate(0,-369.27502)"
   style="display:none"
   id="layer1"><path
   id="path4995"
   d="M -20.067546,369.1355 H 696.54079"
   style="fill:url(#linearGradient5001);fill-opacity:1;fill-rule:evenodd;stroke:#ff0000;stroke-width:1.06610727;stroke-linecap:butt;stroke-linejoin:miter;stroke-miterlimit:4;stroke-dasharray:4.2644289, 4.2644289;stroke-dashoffset:0;stroke-opacity:1" /><path
   id="path4995-8"
   d="M -20.067546,444.34277 H 696.54079"
   style="fill:url(#linearGradient5001-9);fill-opacity:1;fill-rule:evenodd;stroke:#ff0000;stroke-width:1.06610727;stroke-linecap:butt;stroke-linejoin:miter;stroke-miterlimit:4;stroke-dasharray:4.2644289, 4.2644289;stroke-dashoffset:0;stroke-opacity:1" /><path
   id="path4995-0"
   d="M -20.067546,519.55008 H 696.5408"
   style="fill:url(#linearGradient5001-8);fill-opacity:1;fill-rule:evenodd;stroke:#ff0000;stroke-width:1.06610727;stroke-linecap:butt;stroke-linejoin:miter;stroke-miterlimit:4;stroke-dasharray:4.2644289, 4.2644289;stroke-dashoffset:0;stroke-opacity:1" /><path
   id="path4995-85"
   d="M -20.067546,594.75737 H 696.54079"
   style="fill:url(#linearGradient5001-96);fill-opacity:1;fill-rule:evenodd;stroke:#ff0000;stroke-width:1.06610727;stroke-linecap:butt;stroke-linejoin:miter;stroke-miterlimit:4;stroke-dasharray:4.2644289, 4.2644289;stroke-dashoffset:0;stroke-opacity:1" /><path
   id="path4995-85-1"
   d="M 68.277532,342.38193 V 609.91774"
   style="fill:url(#linearGradient5001-96-6);fill-opacity:1;fill-rule:evenodd;stroke:#ff0000;stroke-width:1;stroke-linecap:butt;stroke-linejoin:miter;stroke-miterlimit:4;stroke-dasharray:4, 4;stroke-dashoffset:0;stroke-opacity:1" /><path
   id="path4995-85-1-8"
   d="M 600.67379,342.38193 V 609.91774"
   style="fill:url(#linearGradient5001-96-6-5);fill-opacity:1;fill-rule:evenodd;stroke:#ff0000;stroke-width:1;stroke-linecap:butt;stroke-linejoin:miter;stroke-miterlimit:4;stroke-dasharray:4, 4;stroke-dashoffset:0;stroke-opacity:1" /><text
   id="text5091"
   y="491.13968"
   x="22.14716"
   style="font-style:normal;font-weight:normal;font-size:40px;line-height:125%;font-family:sans-serif;letter-spacing:0px;word-spacing:0px;fill:url(#linearGradient5531);fill-opacity:1;stroke:none;stroke-width:1px;stroke-linecap:butt;stroke-linejoin:miter;stroke-opacity:1"
   xml:space="preserve"><tspan
     style="fill:url(#linearGradient5531);fill-opacity:1"
     y="491.13968"
     x="22.14716"
     id="tspan5089">x</tspan></text>


<text
   id="text5091-1"
   y="561.99731"
   x="26.066433"
   style="font-style:normal;font-weight:normal;font-size:40px;line-height:125%;font-family:sans-serif;letter-spacing:0px;word-spacing:0px;fill:url(#linearGradient5533);fill-opacity:1;stroke:none;stroke-width:1px;stroke-linecap:butt;stroke-linejoin:miter;stroke-opacity:1"
   xml:space="preserve"><tspan
     style="font-size:26.66666603px;fill:url(#linearGradient5533);fill-opacity:1"
     y="561.99731"
     x="26.066433"
     id="tspan5089-0">x</tspan></text>


<text
   id="text5091-1-2"
   y="412.99036"
   x="26.066433"
   style="font-style:normal;font-weight:normal;font-size:40px;line-height:125%;font-family:sans-serif;letter-spacing:0px;word-spacing:0px;fill:url(#linearGradient5535);fill-opacity:1;stroke:none;stroke-width:1px;stroke-linecap:butt;stroke-linejoin:miter;stroke-opacity:1"
   xml:space="preserve"><tspan
     style="font-size:26.66666603px;fill:url(#linearGradient5535);fill-opacity:1"
     y="412.99036"
     x="26.066433"
     id="tspan5089-0-5">x</tspan></text>


<text
   id="text5091-1-9"
   y="562.40387"
   x="628.72308"
   style="font-style:normal;font-weight:normal;font-size:40px;line-height:125%;font-family:sans-serif;letter-spacing:0px;word-spacing:0px;fill:url(#linearGradient5537);fill-opacity:1;stroke:none;stroke-width:1px;stroke-linecap:butt;stroke-linejoin:miter;stroke-opacity:1"
   xml:space="preserve"><tspan
     style="font-size:26.66666603px;fill:url(#linearGradient5537);fill-opacity:1"
     y="562.40387"
     x="628.72308"
     id="tspan5089-0-2">x</tspan></text>


<text
   id="text5091-1-2-2"
   y="413.39694"
   x="628.72308"
   style="font-style:normal;font-weight:normal;font-size:40px;line-height:125%;font-family:sans-serif;letter-spacing:0px;word-spacing:0px;fill:url(#linearGradient5539);fill-opacity:1;stroke:none;stroke-width:1px;stroke-linecap:butt;stroke-linejoin:miter;stroke-opacity:1"
   xml:space="preserve"><tspan
     style="font-size:26.66666603px;fill:url(#linearGradient5539);fill-opacity:1"
     y="413.39694"
     x="628.72308"
     id="tspan5089-0-5-3">x</tspan></text>


<path
   id="path4995-85-1-8-3"
   d="M 672.90845,342.38193 V 609.91774"
   style="fill:url(#linearGradient5001-96-6-5-1);fill-opacity:1;fill-rule:evenodd;stroke:#ff0000;stroke-width:1;stroke-linecap:butt;stroke-linejoin:miter;stroke-miterlimit:4;stroke-dasharray:4, 4;stroke-dashoffset:0;stroke-opacity:1" /><path
   id="path4995-85-1-8-2"
   d="M 0.50179388,342.38193 V 609.91774"
   style="fill:url(#linearGradient5001-96-6-5-4);fill-opacity:1;fill-rule:evenodd;stroke:#ff0000;stroke-width:1;stroke-linecap:butt;stroke-linejoin:miter;stroke-miterlimit:4;stroke-dasharray:4, 4;stroke-dashoffset:0;stroke-opacity:1" /></g><g
   transform="translate(0,-369.27502)"
   style="display:inline"
   id="layer2">









</g></svg>